<?xml version="1.0" standalone="no"?><!DOCTYPE svg PUBLIC "-//W3C//DTD SVG 1.1//EN" "http://www.w3.org/Graphics/SVG/1.1/DTD/svg11.dtd"><svg class="icon" width="200px" height="200.00px" viewBox="0 0 1024 1024" version="1.1" xmlns="http://www.w3.org/2000/svg"><path d="M874.0352 149.9648C777.3184 53.248 648.7552 0 512 0S246.6816 53.248 149.9648 149.9648C53.248 246.6816 0 375.2448 0 512s53.248 265.3184 149.9648 362.0352C246.6816 970.752 375.2448 1024 512 1024s265.3184-53.248 362.0352-149.9648C970.752 777.3184 1024 648.7552 1024 512s-53.248-265.3184-149.9648-362.0352z m67.8912 196.1984c-9.984-17.9712-35.072-26.5216-67.84-37.6832-35.1744-11.9808-47.616-48.128-62.0032-90.0096-12.4928-36.352-25.3952-73.8816-56.064-97.2288a463.4624 463.4624 0 0 1 185.9072 224.9216z m-143.6672 175.616c3.8912 34.6624 7.8848 70.5536-35.1744 118.8864-11.6224 13.056-18.432 31.232-25.6512 50.4832-16.6912 44.5952-32.4608 86.7328-99.6352 87.3472-1.8944-2.2528-7.2192-10.752-11.9808-37.5296-4.352-24.6784-6.8608-56.6272-9.5744-90.368-4.096-51.8144-8.7552-110.592-21.5552-159.3344-16.384-62.3104-43.8784-99.1232-84.0192-112.5376a170.3936 170.3936 0 0 0-54.6816-8.704c-14.2336 0-27.136 1.536-38.5024 2.8672-8.8576 1.024-17.2544 2.048-24.32 2.048-11.9808 0-25.5488 0-42.2912-38.2976C326.8608 281.6 344.576 193.3824 415.0784 146.8416c38.656-25.4976 65.3312-36.4032 89.1904-36.4032 19.0464 0 39.5776 6.6048 68.7104 22.1696a163.328 163.328 0 0 0 81.0496 20.6848c7.7824 0 14.848-0.4096 21.6576-0.8192 5.7344-0.3584 11.1104-0.6656 16.128-0.6656 11.264 0 20.3776 1.4848 31.0784 8.7552 19.712 13.4656 29.952 43.2128 40.7552 74.6496 16.384 47.7184 34.9696 101.7856 93.952 121.856 7.936 2.7136 21.5552 7.3216 31.232 11.3664-8.3456 8.6016-22.272 21.0432-35.9424 33.2288-8.8064 7.8848-18.7904 16.7936-29.8496 26.88-31.9488 29.1328-28.16 63.232-24.7808 93.2864z m-747.008-13.7216c5.5296 0.9728 11.4688 2.1504 17.6128 3.4304 28.7744 6.144 42.24 11.6736 48.128 14.7968-2.7136 5.2736-8.192 13.056-11.8272 18.176-12.6464 17.9712-28.416 40.3456-22.4256 64.9728 4.0448 16.64 0.6144 37.0176-5.2736 55.8592A458.752 458.752 0 0 1 51.2 511.8976l0.0512-3.9424zM512 972.8a461.2608 461.2608 0 0 1-406.016-243.0464c13.4144-25.5488 38.2976-82.0736 26.6752-131.5328 0.8192-4.9664 9.2672-16.9472 14.336-24.1664 13.8752-19.712 31.1296-44.1856 18.3296-70.144-8.96-18.2272-32.9728-30.5152-80.1792-41.1648a666.112 666.112 0 0 0-30.6688-6.0416C81.92 228.608 276.5824 51.2512 511.9488 51.2512c80.7936 0 156.7744 20.9408 222.8224 57.6a104.0896 104.0896 0 0 0-43.008-8.2432c-6.5024 0-12.9536 0.3584-19.2 0.768a318.5664 318.5664 0 0 1-18.6368 0.7168c-14.5408 0-32.6656-1.7408-56.9344-14.6944-37.0688-19.712-64.8192-28.16-92.7744-28.16-34.6112 0-69.7344 13.4144-117.4016 44.8512a218.4192 218.4192 0 0 0-87.3984 117.1456c-14.7968 47.1552-13.2096 95.4368 4.4544 135.8848 20.8384 47.7184 48.3328 69.0176 89.1904 69.0176 10.0864 0 19.9168-1.1776 30.3104-2.4064 10.496-1.2288 21.2992-2.5088 32.512-2.5088 13.8752 0 26.112 1.9456 38.4512 6.0416 22.4768 7.5264 39.0656 32.7168 50.7392 77.0048s16.0768 100.6592 20.0192 150.3232c3.2768 41.472 6.3488 80.5888 13.1584 110.1312 4.1472 17.92 9.472 31.5392 16.384 41.6256 10.2912 15.0528 25.0368 23.3472 41.5232 23.3472 45.2608 0 81.408-14.592 107.4688-43.3664 21.6576-23.9104 32.7168-53.4528 41.6256-77.2096 5.2224-13.9776 10.6496-28.4672 15.9232-34.4064 58.2144-65.3824 52.224-119.2448 47.8208-158.6176-3.2256-28.8768-3.2768-39.1168 8.3968-49.7664 10.8544-9.8816 20.736-18.7392 29.44-26.5216 18.5856-16.5888 32-28.5696 41.4208-38.8096 6.4512-7.0656 21.6064-23.6032 17.408-44.288l-0.1024-0.5632c17.5616 48.6912 27.136 101.1712 27.136 155.8528 0 254.1056-206.6944 460.8-460.8 460.8z"  /></svg>