<?xml version="1.0" standalone="no"?><!DOCTYPE svg PUBLIC "-//W3C//DTD SVG 1.1//EN" "http://www.w3.org/Graphics/SVG/1.1/DTD/svg11.dtd"><svg class="icon" width="200px" height="200.00px" viewBox="0 0 1024 1024" version="1.1" xmlns="http://www.w3.org/2000/svg"><path d="M511.92843 110.107527a19.819355 19.819355 0 0 1 17.69428 10.97772l120.237419 243.99828 269.124817 39.082667a19.648688 19.648688 0 0 1 15.94357 13.46615 19.566108 19.566108 0 0 1-4.971355 20.199226l-194.681118 189.841892 45.925849 268.150366a19.511054 19.511054 0 0 1-7.894709 19.323871 19.720258 19.720258 0 0 1-20.771785 1.458925l-240.606968-126.60714-240.612473 126.60714a19.301849 19.301849 0 0 1-9.067355 2.20215c-5.84671 0-11.258495-2.642581-15.06271-7.030365-3.804215-4.39329-5.268645-10.245505-4.387784-16.103226l45.925849-268.150366-194.681118-189.693247a19.566108 19.566108 0 0 1-4.971355-20.204731 19.885419 19.885419 0 0 1 15.94357-13.460645l268.981677-39.082667 120.231914-243.99828A19.819355 19.819355 0 0 1 511.92843 110.107527z m-0.644129 100.363011l-0.07157 0.137634 0.005506 504.171355c2.77471 0 5.549419 0.677161 8.070881 2.025978l189.247312 99.261936-36.148301-210.107183a17.330925 17.330925 0 0 1 5.037419-15.321462l153.104517-148.821334-211.582624-30.637419a17.000602 17.000602 0 0 1-13.036731-9.524301L511.284301 210.470538z" fill="#3A3A3A" /></svg>